<?xml version="1.0" encoding="iso-8859-1"?>
<!-- Generator: Adobe Illustrator 19.0.0, SVG Export Plug-In . SVG Version: 6.00 Build 0)  -->
<svg version="1.1" id="Layer_1" xmlns="http://www.w3.org/2000/svg" xmlns:xlink="http://www.w3.org/1999/xlink" x="0px" y="0px"
	 viewBox="0 0 504.131 504.131" style="enable-background:new 0 0 504.131 504.131;" xml:space="preserve">
<circle style="fill:#0EE565;" cx="252.065" cy="252.069" r="252.062"/>
<path style="fill:#00C67F;" d="M73.834,73.823c98.43-98.43,258.032-98.43,356.462,0c98.438,98.446,98.446,258.032,0,356.478"/>
<g>
	<path style="fill:#363D3B;" d="M445.05,261.9c0,5.813-4.703,10.508-10.5,10.508H69.58c-5.797,0-10.5-4.695-10.5-10.508l0,0
		c0-5.797,4.703-10.492,10.5-10.492H434.55C440.347,251.408,445.05,256.102,445.05,261.9L445.05,261.9z"/>
	<path style="fill:#363D3B;" d="M220.912,135.223c0,23.568-19.109,42.677-42.677,42.677h-22.307
		c-23.568,0-42.661-19.109-42.661-42.677l0,0c0-23.568,19.094-42.661,42.661-42.661h22.307
		C201.802,92.562,220.912,111.655,220.912,135.223L220.912,135.223z"/>
	<path style="fill:#363D3B;" d="M409.958,135.223c0,23.568-19.109,42.677-42.677,42.677h-22.307
		c-23.568,0-42.661-19.109-42.661-42.677l0,0c0-23.568,19.094-42.661,42.661-42.661h22.307
		C390.848,92.562,409.958,111.655,409.958,135.223L409.958,135.223z"/>
	<path style="fill:#363D3B;" d="M414.235,304.301c0,20.819-16.88,37.691-37.691,37.691H335.71c-20.819,0-37.691-16.88-37.691-37.691
		v-90.033c0-20.819,16.88-37.691,37.691-37.691h40.834c20.819,0,37.691,16.88,37.691,37.691V304.301z"/>
	<path style="fill:#363D3B;" d="M225.189,264.546v-50.278c0-20.819-16.88-37.691-37.691-37.691h-40.834
		c-20.819,0-37.691,16.88-37.691,37.691v50.278H225.189z"/>
</g>
<g>
	<circle style="fill:#0EE565;" cx="149.681" cy="137.515" r="5.908"/>
	<circle style="fill:#0EE565;" cx="192.019" cy="137.515" r="5.908"/>
</g>
<g>
	<path style="fill:#363D3B;" d="M260.312,134.207c9.153,9.169-33.493,66.694-42.654,75.847c-9.177,9.184-24.04,9.169-33.193,0
		c-9.169-9.153-9.169-24.001,0-33.185C193.618,167.715,251.159,125.054,260.312,134.207z"/>
	<path style="fill:#363D3B;" d="M258.453,252.841c-7.83-10.311,42.197-61.55,52.508-69.388c10.335-7.861,25.049-5.845,32.894,4.474
		c7.83,10.311,5.837,25.033-4.482,32.878C329.046,228.636,266.291,263.144,258.453,252.841z"/>
	<path style="fill:#363D3B;" d="M190.176,259.978c-8.83,9.476-67.86-31.09-77.336-39.904c-9.492-8.846-10.012-23.678-1.182-33.17
		c8.83-9.476,23.662-10.012,33.17-1.182C154.289,194.544,198.99,250.502,190.176,259.978z"/>
	<path style="fill:#363D3B;" d="M348.25,410.254c0,9.429-7.648,17.077-17.061,17.077l0,0c-9.429,0-17.061-7.648-17.061-17.077
		v-81.384c0-9.429,7.633-17.061,17.061-17.061l0,0c9.413,0,17.061,7.633,17.061,17.061V410.254z"/>
	<path style="fill:#363D3B;" d="M392.897,410.254c0,9.429-7.656,17.077-17.061,17.077l0,0c-9.444,0-17.077-7.648-17.077-17.077
		v-81.384c0-9.429,7.633-17.061,17.077-17.061l0,0c9.405,0,17.061,7.633,17.061,17.061V410.254z"/>
</g>
<g>
</g>
<g>
</g>
<g>
</g>
<g>
</g>
<g>
</g>
<g>
</g>
<g>
</g>
<g>
</g>
<g>
</g>
<g>
</g>
<g>
</g>
<g>
</g>
<g>
</g>
<g>
</g>
<g>
</g>
</svg>
